<?xml version="1.0" standalone="no"?>
<!DOCTYPE svg PUBLIC "-//W3C//DTD SVG 20010904//EN"
 "http://www.w3.org/TR/2001/REC-SVG-20010904/DTD/svg10.dtd">
<svg version="1.0" xmlns="http://www.w3.org/2000/svg"
 width="944.000000pt" height="1280.000000pt" viewBox="0 0 944.000000 1280.000000"
 preserveAspectRatio="xMidYMid meet">
<g transform="translate(0.000000,1280.000000) scale(0.100000,-0.100000)"
fill="#000000" stroke="none">
<path d="M3540 12790 c-30 -5 -107 -13 -170 -20 -452 -47 -892 -213 -1260
-476 -148 -106 -254 -196 -400 -343 -461 -463 -724 -968 -821 -1577 -22 -133
-23 -176 -28 -941 -3 -441 -8 -803 -11 -805 -3 -3 -52 -27 -110 -55 -58 -28
-147 -80 -199 -114 -214 -143 -305 -269 -347 -476 -8 -43 -35 -123 -59 -178
-55 -126 -89 -242 -115 -396 -20 -119 -20 -158 -20 -2961 0 -2828 0 -2840 21
-2976 26 -172 66 -298 135 -430 73 -138 146 -236 273 -362 216 -215 450 -327
752 -360 57 -6 151 -23 209 -36 563 -134 1304 -219 2200 -254 146 -5 396 -15
555 -21 183 -8 461 -10 755 -6 1587 21 2571 110 3184 287 39 11 116 24 173 30
315 32 572 161 794 398 101 107 170 204 233 324 70 133 109 259 135 433 l21
140 -3 2865 c-3 2569 -5 2873 -19 2946 -25 125 -54 223 -97 325 -26 62 -41
117 -45 160 -26 284 -175 457 -566 657 -58 30 -111 59 -117 64 -10 8 -13 154
-13 667 l0 657 -55 385 c-36 250 -62 400 -74 429 -11 25 -45 115 -76 200 -188
520 -587 1012 -1100 1358 -192 129 -502 273 -751 346 -189 56 -283 74 -624
116 -100 12 -2274 12 -2360 0z m1746 -2555 c-19 -114 -33 -212 -30 -216 2 -4
21 -13 42 -19 52 -17 120 -57 166 -99 145 -132 184 -196 216 -356 19 -91 20
-132 18 -460 l-3 -360 -975 0 -975 0 -3 388 c-2 419 2 475 51 580 56 122 176
240 297 294 107 48 167 53 650 53 247 0 451 3 453 8 3 4 26 95 51 202 26 107
52 211 59 230 l12 35 3 -35 c2 -20 -13 -130 -32 -245z"/>
</g>
</svg>
