<?xml version="1.0" standalone="no"?>
<!DOCTYPE svg PUBLIC "-//W3C//DTD SVG 20010904//EN"
 "http://www.w3.org/TR/2001/REC-SVG-20010904/DTD/svg10.dtd">
<svg version="1.0" xmlns="http://www.w3.org/2000/svg"
 width="1187.000000pt" height="1280.000000pt" viewBox="0 0 1187.000000 1280.000000"
 preserveAspectRatio="xMidYMid meet">
<g transform="translate(0.000000,1280.000000) scale(0.100000,-0.100000)"
fill="#000000" stroke="none">
<path d="M8315 12133 c-239 -19 -324 -28 -470 -48 -619 -89 -1159 -258 -1725
-541 -791 -396 -1449 -946 -1985 -1656 -267 -353 -476 -712 -675 -1158 l-96
-215 -1027 -5 c-664 -3 -1029 -9 -1036 -15 -5 -5 -113 -287 -239 -625 -319
-856 -381 -1024 -375 -1032 2 -5 73 -8 156 -8 84 -1 265 -5 402 -11 138 -6
486 -14 775 -18 403 -6 552 -12 640 -25 63 -9 149 -19 191 -22 l77 -5 5 -45
c3 -30 13 -55 31 -73 25 -27 26 -28 36 -271 5 -135 10 -284 10 -331 0 -81 -1
-87 -22 -94 -13 -4 -398 -10 -857 -14 l-834 -6 -183 -490 c-258 -687 -424
-1142 -424 -1160 0 -12 13 -15 58 -16 31 0 185 -5 342 -10 157 -6 668 -14
1135 -19 477 -5 876 -13 910 -19 33 -6 113 -15 178 -22 114 -12 118 -13 135
-41 9 -16 31 -36 49 -45 38 -18 40 -21 161 -237 313 -562 591 -935 1007 -1351
258 -259 483 -447 777 -651 703 -488 1527 -815 2378 -943 336 -50 422 -56 885
-55 417 0 451 2 658 28 360 45 656 104 852 171 76 26 477 188 590 238 149 66
155 69 155 81 0 6 -336 347 -747 758 l-748 747 -75 -15 c-1050 -207 -2118 32
-2958 663 -63 47 -156 126 -207 174 -77 74 -93 95 -99 127 -4 29 -29 66 -100
152 -96 115 -124 156 -114 166 3 3 79 9 169 15 211 12 414 28 509 40 41 5 255
13 475 18 569 14 754 22 764 35 4 6 29 65 55 130 26 66 78 185 116 265 107
230 152 353 210 576 18 66 76 246 129 400 54 154 96 283 94 288 -2 4 -682 7
-1511 8 -829 0 -1572 4 -1650 8 -142 6 -144 7 -164 34 -11 15 -28 27 -38 27
-9 0 -22 6 -28 13 -20 24 -42 223 -42 378 1 147 14 347 25 357 2 3 78 9 167
14 90 5 208 16 263 25 84 14 243 17 1015 24 867 7 1256 14 1326 25 30 4 34 11
89 147 32 78 82 192 111 252 100 212 150 345 199 530 32 120 159 508 219 669
15 38 24 72 20 75 -3 3 -566 8 -1251 11 -1206 5 -1245 6 -1258 24 -8 10 -16
23 -18 29 -1 5 -51 14 -110 20 -74 7 -107 14 -107 23 0 7 39 66 86 131 234
320 505 576 854 808 213 141 317 198 585 320 145 67 495 182 655 215 19 4 67
15 105 23 192 42 528 77 747 77 385 0 792 -64 1157 -182 85 -27 160 -52 166
-54 7 -3 48 54 98 134 48 77 122 187 165 244 145 193 341 533 422 730 28 67
103 218 166 335 64 118 114 219 111 226 -5 14 -251 122 -409 181 -498 185
-1026 297 -1578 336 -131 9 -606 11 -705 3z"/>
</g>
</svg>
