<?xml version="1.0" standalone="no"?>
<!DOCTYPE svg PUBLIC "-//W3C//DTD SVG 20010904//EN"
 "http://www.w3.org/TR/2001/REC-SVG-20010904/DTD/svg10.dtd">
<svg version="1.0" xmlns="http://www.w3.org/2000/svg"
 width="1280.000000pt" height="903.000000pt" viewBox="0 0 1280.000000 903.000000"
 preserveAspectRatio="xMidYMid meet">
<g transform="translate(0.000000,903.000000) scale(0.100000,-0.100000)"
fill="#000000" stroke="none">
<path d="M645 9019 c-223 -40 -384 -117 -500 -238 -25 -27 -27 -33 -15 -45 8
-8 778 -537 1710 -1176 932 -640 2335 -1602 3118 -2139 782 -537 1431 -976
1442 -976 11 0 660 439 1442 976 783 537 2186 1499 3118 2139 932 639 1702
1168 1710 1176 12 12 10 18 -15 45 -118 123 -279 199 -509 239 -76 13 -11428
12 -11501 -1z"/>
<path d="M0 4464 c0 -3701 1 -3886 18 -3872 682 605 4288 3821 4290 3827 2 7
-4281 3922 -4300 3929 -4 2 -8 -1746 -8 -3884z"/>
<path d="M10640 6390 c-1180 -1077 -2145 -1963 -2145 -1969 0 -7 3200 -2865
4288 -3829 16 -14 17 171 17 3871 0 2138 -3 3887 -7 3886 -5 0 -973 -882
-2153 -1959z"/>
<path d="M2460 2116 c-1284 -1052 -2336 -1918 -2337 -1923 -4 -12 154 -86 267
-123 47 -16 138 -38 202 -49 l116 -21 5689 0 c3844 0 5709 3 5749 10 231 40
389 115 511 242 l32 33 -2339 1870 c-1287 1028 -2343 1871 -2347 1872 -4 2
-363 -290 -797 -647 -434 -358 -797 -650 -806 -650 -9 0 -372 292 -806 650
-434 357 -791 650 -794 650 -3 0 -1056 -861 -2340 -1914z"/>
</g>
</svg>
