<?xml version="1.0" standalone="no"?>
<!DOCTYPE svg PUBLIC "-//W3C//DTD SVG 20010904//EN"
 "http://www.w3.org/TR/2001/REC-SVG-20010904/DTD/svg10.dtd">
<svg version="1.0" xmlns="http://www.w3.org/2000/svg"
 width="1280.000000pt" height="1028.000000pt" viewBox="0 0 1280.000000 1028.000000"
 preserveAspectRatio="xMidYMid meet">
<g transform="translate(0.000000,1028.000000) scale(0.100000,-0.100000)"
fill="#000000" stroke="none">
<path d="M4536 10257 c-3 -13 -40 -66 -82 -118 -82 -101 -142 -187 -274 -394
-45 -71 -97 -146 -115 -166 -32 -36 -135 -217 -135 -238 0 -6 6 -11 14 -11 29
0 24 -19 -35 -131 -112 -210 -586 -1162 -694 -1394 -111 -237 -217 -485 -253
-590 -48 -140 -141 -564 -188 -860 -22 -132 -29 -400 -14 -530 6 -60 15 -146
20 -190 4 -44 13 -100 19 -125 6 -25 23 -90 36 -145 14 -55 39 -129 55 -164
17 -35 30 -67 30 -72 0 -5 -11 -27 -26 -48 -22 -34 -24 -45 -18 -91 5 -38 15
-61 36 -83 16 -18 34 -42 39 -55 14 -35 11 -152 -5 -229 -33 -156 -169 -552
-193 -560 -6 -2 -38 40 -71 94 -86 141 -145 218 -231 304 -133 133 -266 208
-383 217 -88 6 -107 0 -175 -56 -45 -38 -69 -50 -106 -55 -27 -4 -62 -16 -78
-27 -30 -22 -32 -29 -68 -183 -24 -105 -54 -174 -109 -245 -49 -66 -60 -120
-38 -196 19 -63 79 -125 154 -157 73 -32 203 -57 365 -70 81 -7 147 -15 147
-18 0 -13 -295 -304 -364 -360 -181 -146 -319 -206 -511 -220 l-90 -6 45 -47
c44 -44 118 -78 173 -78 30 0 15 -23 -33 -49 -58 -33 -167 -39 -274 -17 -44 9
-81 14 -84 11 -10 -9 126 -66 194 -80 257 -55 491 47 766 333 53 55 133 150
178 211 46 61 85 109 88 107 2 -3 -21 -52 -53 -108 -189 -336 -351 -494 -562
-548 -24 -6 -43 -14 -43 -19 0 -24 62 -90 98 -104 52 -21 55 -27 31 -66 -29
-48 -77 -64 -176 -59 -46 2 -83 1 -83 -3 0 -19 106 -99 151 -114 96 -32 181
-3 285 97 116 111 192 229 409 638 140 264 220 400 245 415 15 9 14 8 -39
-121 -120 -289 -481 -1055 -780 -1652 -143 -286 -179 -366 -172 -381 17 -32
89 -90 149 -120 71 -36 171 -66 182 -55 4 5 33 88 65 184 192 583 542 1509
719 1900 69 154 64 146 105 155 30 6 33 5 27 -11 -4 -11 -43 -116 -86 -234
-43 -118 -126 -341 -184 -494 -241 -633 -543 -1500 -526 -1511 12 -7 8 -17
100 260 118 358 366 1058 459 1299 99 255 227 556 246 582 13 17 14 16 8 -16
-3 -19 -28 -99 -55 -177 -167 -492 -154 -725 54 -948 39 -42 73 -74 75 -71 2
2 -9 30 -25 62 -50 101 -81 188 -91 260 -11 72 -4 135 16 141 7 3 32 -27 58
-65 50 -77 94 -115 155 -137 44 -15 51 -8 20 20 -32 29 -78 107 -102 171 -29
81 -29 240 0 378 21 97 27 114 37 104 3 -3 19 -81 35 -174 55 -315 101 -437
210 -556 57 -63 206 -175 218 -164 2 3 -19 31 -47 62 -29 31 -63 78 -76 105
-28 54 -48 130 -37 141 4 4 36 -7 71 -25 56 -27 77 -32 163 -35 54 -3 98 0 98
4 0 5 -31 23 -68 41 -129 62 -235 166 -300 296 -48 97 -80 207 -113 387 -17
90 -33 168 -35 172 -3 4 1 8 8 8 7 0 54 -37 103 -82 299 -269 444 -360 575
-362 54 -1 73 4 112 26 65 39 108 93 108 138 1 88 51 224 122 327 44 65 40
138 -12 198 -10 12 -22 55 -30 108 -15 100 -33 134 -92 178 -154 113 -444 146
-733 83 -81 -18 -179 -33 -183 -29 -2 2 11 31 29 66 42 83 99 209 95 209 -5 0
-71 -113 -128 -215 -36 -66 -49 -82 -81 -94 -21 -7 -40 -12 -42 -9 -9 8 209
458 283 586 29 51 39 49 17 -3 -8 -21 -13 -41 -10 -44 3 -3 35 10 71 27 68 34
84 34 84 1 0 -10 5 -19 11 -19 12 0 143 105 173 139 11 11 30 21 43 21 40 0
62 18 74 63 17 57 23 63 82 83 100 32 237 105 324 171 49 37 151 115 228 172
159 119 400 354 537 521 227 278 449 645 596 985 355 821 617 1550 738 2055
20 85 72 292 115 459 75 289 78 306 62 323 -15 17 -191 116 -233 132 -11 5
-15 -2 -16 -25 -2 -56 -13 -56 -152 -1 -72 29 -137 55 -146 58 -11 4 -16 1
-16 -10 0 -33 -130 -470 -142 -477 -6 -4 -28 -1 -47 7 -19 8 -119 39 -223 69
-103 30 -234 72 -290 94 -57 21 -141 47 -187 57 -78 17 -84 17 -93 1 -14 -25
-38 -21 -38 7 0 21 -10 28 -75 51 -42 16 -78 32 -81 36 -12 19 269 537 297
547 5 2 9 10 9 17 0 8 15 29 33 49 l34 35 -126 49 c-69 28 -162 59 -206 71
-44 12 -88 26 -97 31 -24 14 -25 13 -32 -13z m-360 -728 c3 -6 2 -15 -2 -19
-12 -12 -38 5 -30 19 9 14 23 14 32 0z m84 -53 c-13 -13 -35 7 -25 24 5 8 11
8 21 -1 10 -8 12 -15 4 -23z m245 -34 c0 -18 -20 -15 -23 4 -3 10 1 15 10 12
7 -3 13 -10 13 -16z m113 -45 c2 -10 -3 -17 -12 -17 -18 0 -29 16 -21 31 9 14
29 6 33 -14z m352 -92 c10 -12 9 -16 -5 -21 -19 -8 -40 9 -31 25 10 15 21 14
36 -4z m220 -71 c0 -17 -22 -14 -28 4 -2 7 3 12 12 12 9 0 16 -7 16 -16z m90
1 c0 -8 -7 -15 -15 -15 -8 0 -15 7 -15 15 0 8 7 15 15 15 8 0 15 -7 15 -15z
m100 -41 c0 -16 -16 -19 -25 -4 -8 13 4 32 16 25 5 -4 9 -13 9 -21z m176 -65
c3 -6 1 -16 -4 -21 -13 -13 -45 8 -36 23 7 12 31 11 40 -2z m324 -149 c0 -5
-4 -10 -10 -10 -5 0 -10 5 -10 10 0 6 5 10 10 10 6 0 10 -4 10 -10z m91 -5
c-1 -15 -24 -12 -29 3 -3 9 2 13 12 10 10 -1 17 -7 17 -13z m-2486 -4256 c12
-19 -4 -22 -30 -5 -29 19 -25 42 5 26 10 -6 22 -15 25 -21z"/>
<path d="M8235 10272 c-6 -5 -48 -19 -95 -31 -46 -13 -141 -45 -211 -72 l-126
-50 34 -35 c18 -20 33 -41 33 -49 0 -7 4 -15 9 -17 28 -10 309 -528 297 -547
-3 -4 -39 -20 -81 -36 -65 -23 -75 -30 -75 -51 0 -28 -24 -32 -38 -7 -9 16
-15 16 -93 -1 -46 -10 -130 -36 -187 -57 -56 -22 -187 -64 -290 -94 -104 -30
-204 -61 -223 -69 -19 -8 -41 -11 -47 -7 -12 7 -142 444 -142 477 0 11 -5 14
-16 10 -9 -3 -74 -29 -146 -58 -139 -55 -150 -55 -152 1 -1 23 -5 30 -16 25
-42 -16 -218 -115 -233 -132 -16 -17 -13 -34 62 -323 43 -167 95 -374 115
-459 121 -505 383 -1234 738 -2055 147 -340 369 -707 596 -985 137 -167 378
-402 537 -521 77 -57 179 -135 228 -172 87 -66 224 -139 324 -171 59 -20 65
-26 82 -83 12 -45 34 -63 74 -63 13 0 32 -10 43 -21 30 -34 161 -139 173 -139
6 0 11 9 11 19 0 33 16 33 84 -1 36 -17 68 -30 71 -27 3 3 -2 23 -10 44 -9 20
-14 39 -12 42 9 9 120 -205 282 -545 71 -148 74 -170 22 -157 -22 6 -39 32
-98 143 -66 128 -138 252 -145 252 -4 0 52 -121 115 -250 62 -126 63 -125 -92
-86 -161 39 -253 49 -420 43 -212 -7 -332 -45 -423 -132 -44 -42 -59 -80 -71
-175 -4 -38 -15 -68 -36 -97 -17 -25 -31 -59 -34 -85 -4 -39 0 -51 49 -129 61
-96 96 -191 105 -282 5 -58 9 -65 57 -113 146 -143 322 -79 691 251 77 69 144
125 149 125 9 0 10 4 -28 -200 -70 -374 -189 -562 -426 -673 -76 -36 -67 -41
60 -35 68 3 97 10 145 33 33 16 64 31 69 33 17 9 -2 -89 -29 -143 -15 -31 -52
-83 -82 -115 -30 -33 -51 -60 -45 -60 23 0 164 104 214 159 108 116 167 268
213 548 30 182 34 198 46 186 19 -19 50 -210 50 -305 0 -144 -30 -232 -114
-332 -25 -31 -34 -47 -23 -43 10 4 23 7 30 7 32 0 107 66 156 136 44 64 54 73
67 62 13 -10 14 -29 10 -98 -6 -91 -23 -151 -81 -271 -20 -42 -36 -80 -36 -85
0 -17 112 103 151 162 48 74 75 149 91 249 21 138 -11 297 -131 635 -50 141
-63 216 -42 248 13 21 163 -326 308 -713 80 -213 318 -893 408 -1165 97 -293
93 -282 105 -275 17 10 -293 903 -512 1475 -100 260 -185 492 -229 618 l-28
82 33 0 c32 0 35 -3 79 -98 146 -311 521 -1302 712 -1882 32 -96 61 -179 65
-184 11 -11 111 19 182 55 60 30 132 88 149 120 7 15 -30 98 -180 396 -295
591 -731 1517 -731 1554 0 24 25 -20 163 -287 160 -311 225 -420 323 -540 183
-225 323 -261 478 -123 l50 44 -108 5 -108 5 -34 37 c-19 21 -34 44 -34 51 0
8 21 22 46 32 30 11 55 31 75 58 16 22 29 43 29 46 0 4 -33 17 -72 29 -196 58
-343 204 -527 525 -34 59 -61 112 -59 118 2 5 33 -30 68 -79 220 -303 476
-512 695 -567 123 -31 296 -10 415 50 29 14 50 28 48 31 -2 2 -38 -3 -79 -12
-103 -22 -220 -16 -281 14 -52 26 -64 52 -23 52 50 0 133 40 172 83 l38 42
-100 7 c-205 13 -363 90 -575 280 -110 99 -290 282 -290 295 0 5 66 15 148 21
376 31 522 113 522 293 0 59 -3 67 -54 143 -58 87 -97 187 -116 301 -17 98
-66 145 -153 145 -25 0 -42 9 -72 41 -61 62 -86 72 -175 67 -61 -4 -90 -11
-152 -41 -156 -75 -293 -208 -435 -421 -76 -114 -87 -127 -98 -112 -37 51
-179 475 -206 613 -16 88 -9 201 16 235 11 15 25 28 32 28 6 0 14 12 17 27 19
98 19 103 -8 143 -14 22 -26 44 -26 49 0 5 13 37 30 72 16 35 41 109 55 164
13 55 30 120 36 145 6 25 15 81 19 125 5 44 14 130 20 190 15 130 8 398 -14
530 -47 296 -140 720 -188 860 -36 105 -142 353 -253 590 -108 232 -582 1184
-694 1394 -59 112 -64 131 -35 131 8 0 14 5 14 11 0 21 -103 202 -135 238 -18
20 -70 95 -115 166 -132 207 -192 293 -274 394 -42 52 -79 105 -82 118 -7 24
-14 28 -29 15z m421 -743 c8 -14 -18 -31 -30 -19 -9 9 0 30 14 30 5 0 12 -5
16 -11z m-93 -50 c-17 -17 -37 -1 -22 17 8 10 15 12 23 4 7 -7 7 -13 -1 -21z
m-243 -33 c0 -8 -4 -17 -9 -21 -12 -7 -24 12 -16 25 9 15 25 12 25 -4z m-105
-47 c0 -7 -8 -15 -17 -17 -18 -3 -25 18 -11 32 10 10 28 1 28 -15z m-349 -90
c9 -16 -12 -33 -31 -25 -14 5 -15 9 -5 21 15 18 26 19 36 4z m-316 -74 c0 -8
-7 -15 -15 -15 -8 0 -15 7 -15 15 0 8 7 15 15 15 8 0 15 -7 15 -15z m88 3 c-6
-18 -28 -21 -28 -4 0 9 7 16 16 16 9 0 14 -5 12 -12z m-196 -50 c-6 -6 -15 -9
-18 -5 -4 3 -4 14 0 23 5 13 9 15 18 6 9 -9 9 -15 0 -24z m-158 -57 c9 -15
-23 -36 -36 -23 -5 5 -7 15 -4 21 9 13 33 14 40 2z m-424 -150 c0 -14 -18 -23
-30 -16 -6 4 -8 11 -5 16 8 12 35 12 35 0z m80 -1 c0 -5 -4 -10 -10 -10 -5 0
-10 5 -10 10 0 6 5 10 10 10 6 0 10 -4 10 -10z m2411 -4262 c-13 -10 -27 -18
-32 -18 -16 0 -9 19 13 34 30 21 47 7 19 -16z"/>
<path d="M5141 10056 c6 -7 290 -133 447 -200 73 -31 201 -90 283 -132 83 -41
154 -73 157 -70 8 9 -266 138 -592 280 -267 117 -307 133 -295 122z"/>
<path d="M7355 9931 c-331 -145 -591 -269 -583 -277 3 -3 74 29 157 70 82 42
210 101 283 132 157 67 441 193 447 200 13 13 -42 -9 -304 -125z"/>
<path d="M2900 4888 c0 -9 5 -20 10 -23 13 -8 13 5 0 25 -8 13 -10 13 -10 -2z"/>
<path d="M9886 4884 c-4 -9 -4 -19 -1 -22 2 -3 7 3 11 12 4 9 4 19 1 22 -2 3
-7 -3 -11 -12z"/>
<path d="M1457 1446 l-28 -23 40 -36 c21 -19 49 -40 60 -47 27 -14 64 -4 57
16 -9 24 -81 113 -91 113 -5 0 -23 -10 -38 -23z"/>
<path d="M11257 1419 c-49 -65 -53 -76 -28 -84 24 -7 71 18 114 62 l27 29 -30
22 c-16 12 -33 22 -37 21 -4 0 -25 -23 -46 -50z"/>
<path d="M17 1367 c-24 -37 -22 -46 21 -113 90 -139 284 -276 753 -532 446
-244 707 -356 1197 -516 380 -124 583 -176 772 -198 89 -10 106 -10 156 6 58
18 104 54 104 79 0 12 -7 11 -37 -5 -219 -115 -1552 351 -2407 842 -316 181
-512 338 -532 424 l-9 40 -18 -27z"/>
<path d="M1360 1371 l-24 -19 70 -69 c105 -102 155 -127 340 -173 87 -21 197
-51 243 -65 100 -30 146 -33 137 -9 -3 9 -6 24 -6 34 0 16 -13 18 -117 22
-145 6 -198 25 -320 112 -49 34 -120 81 -158 103 -39 23 -79 50 -89 62 -23 26
-44 26 -76 2z"/>
<path d="M11364 1369 c-10 -12 -50 -39 -89 -62 -38 -22 -109 -69 -158 -103
-122 -87 -175 -106 -319 -112 -105 -4 -118 -6 -118 -22 0 -10 -3 -25 -6 -34
-9 -24 37 -21 137 9 46 14 156 44 243 65 185 46 235 71 340 173 l70 69 -24 19
c-32 24 -53 24 -76 -2z"/>
<path d="M12755 1354 c-5 -31 -23 -55 -83 -114 -315 -309 -1476 -859 -2297
-1089 -173 -48 -301 -72 -415 -78 -91 -4 -110 -2 -142 15 -31 16 -38 17 -38 5
0 -25 46 -61 104 -79 50 -16 67 -16 156 -6 189 22 392 74 772 198 490 160 751
272 1197 516 469 256 663 393 753 532 43 67 45 81 19 115 l-18 24 -8 -39z"/>
<path d="M1458 1060 c-12 -7 -18 -23 -18 -45 0 -40 13 -48 218 -135 130 -54
138 -55 163 -8 8 14 6 26 -6 44 -25 38 -132 112 -185 128 -70 21 -152 28 -172
16z"/>
<path d="M11212 1055 c-35 -8 -84 -26 -109 -40 -50 -30 -133 -106 -133 -123 0
-6 10 -23 23 -38 l23 -27 124 53 c207 87 220 95 220 135 0 56 -32 65 -148 40z"/>
<path d="M740 1010 c66 -52 433 -255 590 -328 444 -203 906 -356 930 -307 3 6
-93 44 -215 86 -440 152 -726 277 -1086 477 -131 73 -174 92 -205 92 l-39 0
25 -20z"/>
<path d="M11860 948 c-350 -196 -668 -336 -1105 -487 -122 -42 -218 -80 -215
-86 24 -49 486 104 930 307 157 73 524 276 590 328 l25 20 -40 0 c-32 0 -70
-17 -185 -82z"/>
</g>
</svg>
