<?xml version="1.0" standalone="no"?>
<!DOCTYPE svg PUBLIC "-//W3C//DTD SVG 20010904//EN"
 "http://www.w3.org/TR/2001/REC-SVG-20010904/DTD/svg10.dtd">
<svg version="1.0" xmlns="http://www.w3.org/2000/svg"
 width="1280.000000pt" height="735.000000pt" viewBox="0 0 1280.000000 735.000000"
 preserveAspectRatio="xMidYMid meet">
<g transform="translate(0.000000,735.000000) scale(0.100000,-0.100000)"
fill="#000000" stroke="none">
<path d="M9030 7224 c-19 -2 -80 -11 -136 -20 -868 -130 -1554 -829 -1680
-1710 -18 -130 -20 -404 -4 -524 51 -379 188 -717 407 -1002 170 -221 358
-403 545 -525 485 -318 1089 -398 1643 -217 357 117 657 329 910 645 245 303
386 596 462 954 25 122 27 146 28 380 0 167 -4 275 -13 325 -82 456 -285 842
-604 1145 -298 284 -652 460 -1068 530 -91 16 -415 28 -490 19z"/>
<path d="M7099 6989 c-517 -394 -908 -891 -1154 -1469 -20 -47 -40 -89 -44
-93 -5 -5 -82 15 -172 43 -728 230 -1420 291 -2184 195 -678 -86 -1484 -299
-2627 -694 -553 -191 -595 -207 -577 -226 4 -3 87 -15 185 -26 195 -21 369
-50 451 -74 41 -12 53 -21 61 -43 13 -38 44 -51 268 -116 308 -89 435 -137
699 -265 518 -252 989 -579 2109 -1464 792 -626 1132 -843 1535 -977 168 -56
311 -79 556 -90 336 -15 366 -28 632 -282 282 -268 538 -446 888 -618 341
-168 675 -269 1076 -325 155 -22 586 -31 760 -16 636 57 1264 293 1755 662
120 91 511 481 659 659 97 117 227 291 222 297 -3 2 -60 -28 -128 -67 -424
-243 -843 -386 -1340 -457 -178 -25 -748 -25 -929 0 -713 101 -1322 371 -1865
826 -166 140 -435 428 -435 466 0 5 19 16 41 23 39 12 44 11 78 -11 20 -14
126 -105 236 -203 267 -237 426 -363 630 -499 187 -125 312 -198 478 -281 203
-103 208 -94 21 41 -652 471 -964 775 -1196 1167 -99 169 -183 348 -328 708
-148 366 -211 507 -288 645 -136 244 -269 405 -487 588 l-30 25 3 144 c4 274
36 515 102 783 89 359 229 716 386 981 63 108 66 114 55 114 -5 0 -51 -32
-102 -71z"/>
<path d="M11626 6064 c153 -344 214 -598 239 -984 13 -201 -27 -530 -91 -755
-273 -951 -1084 -1634 -2073 -1746 -157 -18 -505 -7 -660 21 -351 62 -661 185
-948 377 -68 45 -123 78 -123 73 0 -15 165 -255 230 -336 35 -43 138 -154 227
-245 90 -92 163 -173 163 -182 0 -24 114 -123 206 -177 119 -70 165 -92 321
-156 475 -192 939 -240 1401 -144 561 115 1029 413 1405 895 379 485 561 1029
544 1620 -15 510 -177 975 -481 1382 -78 105 -267 309 -338 365 l-39 31 17
-39z"/>
</g>
</svg>
