<?xml version="1.0" standalone="no"?>
<!DOCTYPE svg PUBLIC "-//W3C//DTD SVG 20010904//EN"
 "http://www.w3.org/TR/2001/REC-SVG-20010904/DTD/svg10.dtd">
<svg version="1.0" xmlns="http://www.w3.org/2000/svg"
 width="1280.000000pt" height="1265.000000pt" viewBox="0 0 1280.000000 1265.000000"
 preserveAspectRatio="xMidYMid meet">
<g transform="translate(0.000000,1265.000000) scale(0.100000,-0.100000)"
fill="#000000" stroke="none">
<path d="M1509 12646 c-2 -2 -49 -9 -104 -16 -716 -83 -1248 -547 -1365 -1190
-47 -259 -48 -285 -20 -485 42 -308 162 -643 295 -830 55 -76 232 -250 355
-347 328 -259 646 -462 1828 -1172 1270 -763 1709 -1050 2137 -1400 308 -252
367 -333 612 -830 l54 -110 -73 -69 c-644 -610 -1176 -1082 -1554 -1379 l-121
-95 -134 -6 c-433 -20 -872 -164 -1225 -402 -161 -108 -251 -184 -390 -326
-376 -387 -601 -882 -654 -1437 -47 -498 89 -1051 366 -1483 46 -72 76 -99
111 -99 55 0 61 12 352 811 154 422 292 791 307 820 75 150 202 258 367 314
96 32 210 42 302 26 57 -10 1019 -352 1229 -437 292 -118 461 -434 391 -731
-8 -34 -145 -420 -305 -857 -172 -471 -290 -810 -290 -830 0 -28 7 -40 35 -62
30 -23 39 -25 63 -16 15 6 76 25 136 42 497 141 974 481 1278 911 462 654 563
1502 268 2252 -32 81 -37 104 -27 116 45 59 369 428 531 606 342 374 913 975
926 975 5 0 230 -199 502 -443 271 -243 971 -871 1555 -1395 585 -524 1070
-966 1078 -981 30 -60 29 -101 -11 -262 -40 -166 -47 -263 -24 -334 24 -75
123 -226 200 -304 142 -145 282 -240 785 -531 193 -111 408 -240 478 -286 70
-46 129 -84 131 -84 3 0 332 339 838 865 43 44 78 89 78 99 0 11 -9 29 -19 40
-43 46 -184 247 -381 543 -246 368 -357 518 -482 649 -207 216 -326 267 -664
284 -194 9 -275 23 -365 61 -38 17 -289 269 -1452 1460 -774 792 -1407 1445
-1407 1452 0 19 557 541 910 853 426 375 872 727 1124 885 l68 43 247 1 c177
1 275 6 349 18 294 48 535 126 768 247 940 489 1443 1523 1243 2557 -57 299
-174 592 -335 840 -58 89 -82 105 -133 83 -16 -6 -36 -26 -44 -43 -8 -18 -131
-349 -272 -737 -304 -836 -298 -818 -347 -897 -134 -212 -417 -333 -660 -282
-61 13 -1170 415 -1253 454 -167 79 -301 248 -346 435 -18 76 -15 223 6 295 9
33 147 417 306 853 159 436 289 799 289 807 0 29 -24 64 -52 76 -59 24 -381
-84 -615 -206 -682 -355 -1147 -1006 -1258 -1760 -42 -287 -25 -625 45 -900
11 -43 20 -82 20 -86 0 -20 -233 -318 -424 -544 -278 -327 -948 -1063 -992
-1088 -19 -11 -376 166 -504 250 -240 158 -545 482 -909 962 -271 360 -471
644 -1051 1496 -399 587 -472 693 -648 940 -374 525 -647 852 -842 1008 -170
137 -559 280 -855 316 -55 7 -119 17 -142 22 -41 9 -206 13 -214 5z"/>
</g>
</svg>
